<?xml version="1.0" encoding="UTF-8"?>
<svg version="1.1" viewBox="0 0 357.2 288.21" xmlns="http://www.w3.org/2000/svg" xmlns:cc="http://creativecommons.org/ns#" xmlns:dc="http://purl.org/dc/elements/1.1/" xmlns:rdf="http://www.w3.org/1999/02/22-rdf-syntax-ns#">
<metadata>
<rdf:RDF>
<cc:Work rdf:about="">
<dc:format>image/svg+xml</dc:format>
<dc:type rdf:resource="http://purl.org/dc/dcmitype/StillImage"/>
</cc:Work>
</rdf:RDF>
</metadata>
<desc>A mascot for JavaScript. Created by Michael Kolesidis.</desc>
<g transform="translate(-72.278 -34.185)">
<path d="m307.05 88.886c18.615 5.7352 36.845-6.0173 47.557 0.7377 10.712 6.755 20.062 16.419 36.914 14.875 16.668-1.5272 37.956-9.5575 37.956-9.5575s-20.923-9.0258-29.949-19.292c-9.026-10.266-13.31-20.886-29.152-26.555-21.514-7.6977-40.377-3.6275-49.291-8.677-11.237 9.781-14.035 48.468-14.035 48.468z" color="#000000" fill="#f7df1e"/>
<g fill-rule="evenodd">
<path d="m88.578 221.33c2.7565 8.4774-4.4719 62.382-6.1152 83.943-0.3885-0.0524-0.75118-0.1696-1.1562-0.15625-4.0781 0.13438-7.264 3.6875-7.125 7.9062 0.139 4.2187 3.5469 7.5094 7.625 7.375 2.8206-0.093 5.1159-1.8656 6.2812-4.3125 1.1894 2.6622 3.8761 4.5082 6.9688 4.4062 4.0781-0.13436 7.2906-3.5781 7.1563-7.6562-0.13436-4.0781-3.5469-7.2594-7.625-7.125-0.34978 0.0115-0.66792 0.12804-1 0.1875 1.1646-16.548 9.339-82.751 13.664-87.652 2.9555-3.3492 27.684-4.8604 28.465 0.49621 0.68474 4.701 12.389 75.753 11.08 83.141-7.9368-0.25954-13.674 9.1974-9.2247 12.97 4.1713 3.5372 11.24 4.7278 13.602-2.6921 4.6984 7.9984 12.04 4.4419 14.536 0.57844 2.1473-3.323-0.14407-10.122-9.9134-11.231 3.8438-16.682-4.852-90.938-3.4994-92.928 1.5606-2.2957 9.376-15.317 10.156-24.5 0.1078-1.2687 0.0949-3.5533-0.0625-6.3125 24.405 4.6828 40.794 7.8244 51.578 1.9003 15.262-8.3839 18.137-14.589 33.672-24.807 19.347-12.724 33.864-5.0976 43.135-6.9977 9.2703-1.9 4.981-14.292 10.577-23.758 6.0758-10.277-21.482-17.515-27.804-9.414-7.8683 10.082-6.4578 17.113-13.547 19.575-9.2957 3.2284-29.482 15.558-36.086 20.218-11.188 7.8951-38.69 13.174-58.708 5.5521-41.187-99.259-105.54-5.508-76.629 61.292z" color="#000000" fill="#f7df1e"/>
<path d="m281.25 109.41c-3.6772 0.32668-7.1184 1.454-9.1953 4.1152-4.0998 5.2532-5.8239 9.7982-7.2969 13.027-1.473 3.2292-2.399 4.8896-5.377 5.9238-9.9066 3.4406-29.752 15.659-36.557 20.461-5.1578 3.6397-14.648 6.9378-25.186 8.2617-10.292 1.2931-21.582 0.70234-31.051-2.7305-10.317-24.498-22.129-37.548-34.143-41.906-12.159-4.4104-24.096 0.51827-33.24 10.574-18.259 20.081-27.12 60.655-12.43 94.791 0.42999 1.328 0.66037 6.4543 0.34766 12.975-0.31292 6.5245-1.0072 14.711-1.8398 23.312-1.6016 16.546-3.635 34.099-4.5312 45.127-4.8891 0.44729-8.6305 4.7189-8.4648 9.748 0.17159 5.2078 4.4526 9.3801 9.5859 9.2109 2.486-0.082 4.6172-1.2437 6.1895-2.9258 1.7599 1.9066 4.2689 3.1115 7.0605 3.0195 5.1132-0.16846 9.1605-4.5077 8.9922-9.6172-0.15468-4.6948-3.868-8.3223-8.4238-8.7676 0.7107-8.908 2.8421-27.819 5.4277-46.035 1.3622-9.5967 2.8233-18.828 4.2051-25.926 0.69089-3.5489 1.3653-6.5668 1.9824-8.7969 0.61717-2.2301 1.4362-3.8177 1.373-3.7461-0.042 0.0476 0.45133-0.3335 1.2695-0.63281 0.81821-0.29932 1.9464-0.5946 3.25-0.84571 2.6073-0.50221 5.9191-0.83305 9.1406-0.89453 3.2215-0.0615 6.3779 0.15558 8.6016 0.65821 1.1118 0.25131 1.9846 0.58552 2.459 0.87695 0.47442 0.29142 0.44601 0.39656 0.43946 0.35156 0.36813 2.5274 3.4439 21.311 6.2891 40.566 1.4226 9.6276 2.7832 19.338 3.7031 27.078 0.45996 3.8703 0.80945 7.2504 1.002 9.8613 0.14092 1.9113 0.0958 2.8051 0.0703 3.6816-3.8447 0.52794-7.0614 2.7796-8.9414 5.5977-1.0986 1.6468-1.79 3.4788-1.8379 5.3476-0.0479 1.8688 0.65813 3.8276 2.2227 5.1543 2.4092 2.043 5.5878 3.4437 8.8457 3.207 2.3875-0.17343 4.7189-1.4662 6.3359-3.8086 2.4192 2.4949 5.3552 3.4398 7.998 3.0801 3.4197-0.4655 6.2164-2.5902 7.7812-5.0117 1.5614-2.4163 1.3781-5.7521-0.50977-8.541-1.65-2.4375-4.6844-4.3687-8.9414-5.2363 0.77742-4.7098 0.95432-11.426 0.72656-19.814-0.25499-9.3911-0.9419-20.319-1.7051-30.781s-1.6022-20.458-2.166-27.945c-0.28193-3.7436-0.49477-6.864-0.59375-9.0762-0.0495-1.1061-0.0708-1.9904-0.0605-2.5742 4e-3 -0.23728 0.0157-0.37883 0.0254-0.49219 2.0072-3.0088 9.4275-15.205 10.266-25.068 0.0796-0.93636 4.4e-4 -2.6611-0.0371-4.1836 23.086 4.4368 39.225 7.5099 50.574 1.2754 7.7601-4.263 12.456-8.0344 17.049-11.932 4.593-3.8973 9.0887-7.9097 16.754-12.951 18.691-12.293 31.838-4.5454 42.471-6.7246 2.7438-0.56237 4.7838-2.0866 6.0059-4.0352s1.7448-4.2 2.1523-6.543c0.81503-4.686 1.169-9.8373 3.6738-14.074 0.94444-1.5975 1.3044-3.3356 1.0488-4.9512s-1.0761-3.0426-2.1758-4.2441c-2.1994-2.4032-5.5327-4.0819-9.2148-5.1894-3.6822-1.1076-7.7232-1.6079-11.4-1.2812zm0.33594 3.7852c3.0781-0.27346 6.7327 0.16081 9.9707 1.1348 3.238 0.97396 6.0495 2.524 7.5059 4.1152 0.72818 0.79563 1.1133 1.5577 1.2266 2.2734 0.11322 0.71574 6e-3 1.4521-0.56836 2.4238-3.091 5.2284-3.3896 11.006-4.1465 15.357-0.37843 2.1758-0.87303 3.9706-1.6289 5.1758s-1.6555 1.9424-3.5469 2.3301c-7.9084 1.6209-23.796-5.8843-43.799 7.2715-7.8703 5.1764-12.579 9.3749-17.123 13.23-4.5438 3.8555-8.9164 7.3771-16.418 11.498-9.8235 5.3965-25.901 2.5812-50.307-2.1016l-2.3926-0.45899 0.13867 2.4336c0.15434 2.7055 0.15683 4.9787 0.0664 6.043-0.70247 8.2673-8.4952 21.621-9.8359 23.594-0.49488 0.72803-0.37645 0.93751-0.41211 1.2422-0.0357 0.30469-0.0502 0.61512-0.0566 0.98047-0.0128 0.73071 0.0112 1.6632 0.0625 2.8106 0.10267 2.2948 0.31853 5.4331 0.60156 9.1914 0.56608 7.5166 1.4048 17.5 2.166 27.936 0.76122 10.436 1.4432 21.323 1.6953 30.609 0.25213 9.2859 0.0206 17.082-0.83594 20.799l-0.47851 2.0742 2.1152 0.24024c4.4688 0.50771 6.9031 2.2463 8.0664 3.9648 1.1633 1.7186 1.0507 3.441 0.46484 4.3477-0.93177 1.4419-3.0519 3.0296-5.1016 3.3086s-4.1312-0.2959-6.1992-3.8164l-2.1582-3.6719-1.291 4.0566c-1.006 3.16-2.5396 3.998-4.4492 4.1367s-4.3512-0.82218-6.1133-2.3164c-0.66001-0.55967-0.90539-1.2009-0.88086-2.1582 0.0245-0.95734 0.42762-2.1793 1.1992-3.3359 1.5432-2.3132 4.4152-4.2336 7.6152-4.1289l1.6445 0.0547 0.28906-1.6211c0.25184-1.4206 0.15077-3.2656-0.0488-5.9727-0.19959-2.7071-0.55371-6.1261-1.0176-10.029-0.92774-7.8064-2.2914-17.539-3.7168-27.186-2.8508-19.293-5.9705-38.385-6.2871-40.559-0.20163-1.3842-1.1741-2.4048-2.2129-3.043-1.0388-0.63814-2.247-1.0378-3.6094-1.3457-2.7248-0.61591-6.084-0.8154-9.5117-0.75-3.4277 0.0654-6.9021 0.40523-9.7871 0.96094-1.4425 0.27786-2.735 0.60631-3.8379 1.0098-1.1029 0.40346-2.0297 0.80263-2.8105 1.6875-1.1445 1.2969-1.5252 2.853-2.1875 5.2461-0.66229 2.3931-1.347 5.4786-2.0488 9.084-1.4038 7.2108-2.8706 16.484-4.2383 26.119-2.7353 19.27-5.0685 39.918-5.6602 48.326l-0.17188 2.4336 2.4004-0.42969c0.54882-0.0983 0.76226-0.15931 0.72852-0.1582 3.0567-0.10072 5.5635 2.2367 5.6641 5.2891 0.10039 3.0468-2.2773 5.5931-5.3203 5.6934-2.3016 0.0759-4.2837-1.2933-5.1719-3.2812l-1.6797-3.7598-1.7695 3.7168c-0.90209 1.8941-2.5692 3.1626-4.6289 3.2305-3.0228 0.0996-5.5577-2.3074-5.6641-5.5371-0.10638-3.2286 2.2802-5.8462 5.2891-5.9453 0.0019-6e-5 0.23466 0.059 0.83984 0.14063l1.9961 0.26757 0.15234-2.0059c0.81476-10.69 3.0344-29.581 4.7051-46.84 0.83535-8.6296 1.5331-16.855 1.8516-23.496 0.31849-6.6406 0.41844-11.425-0.5293-14.34l-0.02734-0.0859-0.03516-0.082c-14.121-32.631-5.2657-72.236 11.691-90.885 8.4786-9.3244 18.544-13.399 29.131-9.5586 10.587 3.8404 22.119 16.08 32.309 40.635l0.3125 0.75586 0.76563 0.29102c10.416 3.9659 22.563 4.5362 33.578 3.1523 11.015-1.3839 20.87-4.6724 26.9-8.9277 6.404-4.5192 26.931-16.96 35.615-19.977 4.1109-1.4277 6.0248-4.513 7.5859-7.9355s3.0656-7.4371 6.834-12.266c1.0844-1.3894 3.459-2.3945 6.5371-2.668z" color="#000000"/>
</g>
<path d="m317.75 35.591c2.2406 0.3336 3.7927 2.1977 2.6583 6.234l-31.661 110.36c-1.1344 4.0363-2.8591 5.0325-5.0997 4.6989-2.2406-0.3336-4.1235-1.8669-2.9891-5.9032l31.661-110.36c1.1344-4.0363 3.1899-5.3633 5.4305-5.0297z" color="#000000" fill="#a3694d"/>
<path d="m317.95 34.244c-1.4403-0.21446-2.9901 0.14889-4.2109 1.1855-1.2196 1.0356-2.114 2.6329-2.7285 4.8164l-2e-3 0.0039c-1.8e-4 6.47e-4 1.8e-4 0.0013 0 2e-3l-31.658 110.36-2e-3 2e-3c-0.63242 2.2502-0.48006 4.1112 0.40039 5.4551 0.88045 1.3439 2.3334 1.9607 3.6992 2.1641 1.3659 0.20336 2.8655-0.034 4.0371-1.0117 1.1701-0.97644 1.9647-2.4997 2.5723-4.6582l2e-3 -8e-3 31.658-110.36 2e-3 -0.0039c0.62572-2.2264 0.57599-4.0748-0.16602-5.502-0.742-1.4271-2.1632-2.2328-3.6035-2.4473zm-0.4004 2.6934c0.80028 0.11915 1.2773 0.41236 1.5879 1.0098 0.3106 0.59741 0.4696 1.6999-0.0391 3.5098l-31.66 110.36v4e-3c-0.52647 1.8732-1.1628 2.8645-1.6973 3.3105s-1.0178 0.5404-1.8926 0.41016c-0.87474-0.13024-1.4847-0.44764-1.8223-0.96289-0.33692-0.51427-0.55687-1.4394-0.0586-3.2188l2e-3 -6e-3c2.3e-4 -8.2e-4 -2.3e-4 -1e-3 0-2e-3l31.66-110.36v-2e-3c0.51976-1.8494 1.2204-2.9319 1.8711-3.4844 0.65066-0.55251 1.2486-0.68751 2.0488-0.56836z" color="#000000"/>
<g fill-rule="evenodd">
<path d="m296.46 128.11c8.6729 4.0489 14.594-5.2713 13.011-11.092-1.443-5.3042-9.6885-13.2-14.105-7.9271-3.3114 3.9538 0.79117 8.1047 5.0362 8.9896" color="#000000" fill="#f7df1e"/>
<path d="m299.34 105.46c-1.9261-0.11093-3.9888 0.68785-5.4297 2.4082-2.1138 2.5239-1.9198 5.7917-0.41797 7.9512 1.5018 2.1594 3.9396 3.5805 6.5234 4.1191a1.9 1.9 0 0 0 2.248-1.4726 1.9 1.9 0 0 0-1.4727-2.248c-1.6612-0.34629-3.3968-1.4427-4.1797-2.5684-0.78286-1.1257-0.98466-1.91 0.21289-3.3398 0.7674-0.91626 1.3897-1.1089 2.2969-1.0566 0.90719 0.0522 2.1149 0.53219 3.3164 1.3828 2.403 1.7012 4.6576 4.8809 5.2012 6.8789 0.56689 2.0838-0.2926 5.3802-2.2188 7.457-1.9262 2.0768-4.4744 3.132-8.1543 1.4141a1.9 1.9 0 0 0-2.5254 0.91797 1.9 1.9 0 0 0 0.91797 2.5254c4.993 2.331 9.7401 0.75287 12.547-2.2734 2.8068-3.0263 4.1163-7.3019 3.0996-11.039-0.89943-3.3062-3.4873-6.7259-6.6719-8.9805-1.5923-1.1273-3.3669-1.9652-5.293-2.0762z" color="#000000"/>
</g>
<g fill-rule="evenodd">
<path d="m293.89 139.19c-3.857-2.145-9.2308-1.6921-6.8173-8.7479 1.784-5.2154 7.6595-1.2133 15.532 4.5075 7.873 5.7208-0.29216 12.801-9.8541 11.923" color="#000000" fill="#f7df1e"/>
<path d="m290.95 126.17c-0.77315-0.10815-1.5501-0.0842-2.3301 0.14258-1.5599 0.45351-2.7664 1.8333-3.3398 3.5098-0.67124 1.9624-0.88597 3.6045-0.54883 5.0801 0.33715 1.4756 1.3046 2.6205 2.3359 3.3223 2.0628 1.4035 4.353 1.7584 5.9043 2.6211a1.9 1.9 0 0 0 2.584-0.73633 1.9 1.9 0 0 0-0.73633-2.584c-2.3057-1.2822-4.6302-1.7731-5.6152-2.4434-0.49251-0.33511-0.65735-0.53441-0.76953-1.0254s-0.0941-1.4384 0.4414-3.0039c0.31855-0.93126 0.5152-1.0057 0.80469-1.0898 0.28949-0.0842 1.0439-0.0589 2.1797 0.39258 2.2716 0.90297 5.7097 3.2748 9.6348 6.127 1.6911 1.2288 2.253 2.3064 2.3594 3.1113 0.10638 0.80489-0.17159 1.5945-1.0117 2.4805-1.6802 1.772-5.6432 3.294-9.9121 2.9023a1.9 1.9 0 0 0-2.0664 1.7188 1.9 1.9 0 0 0 1.7188 2.0664c5.293 0.48564 10.193-1.0935 13.018-4.0723 1.4123-1.4894 2.2976-3.4896 2.0195-5.5938-0.27811-2.1041-1.6472-4.0559-3.8926-5.6875-3.9479-2.8687-7.3845-5.3596-10.465-6.584-0.77008-0.30611-1.5393-0.54615-2.3125-0.6543z" color="#000000"/>
</g>
<g fill-rule="evenodd">
<path d="m269.12 121.73c3.2437-5.7657 4.1956-11.586 7.711-12.793 3.3941-1.1655 11.518-7.104 14.438-5.5348 2.92 1.5693 5.251 7.175-4.1331 11.687-4.475 2.1515-4.6642 7.8262-8.3004 10.076" color="#000000" fill="#f7df1e"/>
<path d="m289.92 101.21c-0.7434 0.0203-1.4781 0.19302-2.1953 0.40039-1.4344 0.41474-2.9056 1.0917-4.3652 1.834-2.9193 1.4846-5.9524 3.2774-7.1524 3.6894-2.595 0.89111-3.9232 3.2336-5.0625 5.6816s-2.1607 5.2626-3.6875 7.9766a1.9 1.9 0 0 0 0.72461 2.5879 1.9 1.9 0 0 0 2.5879-0.72461c1.7168-3.0517 2.7939-6.031 3.8203-8.2363 1.0264-2.2053 1.9312-3.3754 2.8516-3.6914 2.1941-0.75346 4.9196-2.5128 7.6406-3.8965 1.3605-0.69186 2.6812-1.2765 3.6973-1.5703s1.6177-0.17328 1.584-0.1914c0.81472 0.43784 1.6918 1.5723 1.5566 2.8691-0.13515 1.2969-1.2535 3.3355-5.6133 5.4316-2.816 1.3539-4.2269 3.7947-5.3144 5.8125s-1.9412 3.6046-3.1641 4.3613a1.9 1.9 0 0 0-0.61524 2.6152 1.9 1.9 0 0 0 2.6152 0.61523c2.4133-1.4934 3.473-3.8691 4.5078-5.7891s1.9582-3.3918 3.6172-4.1894c5.0244-2.4157 7.4307-5.4366 7.7461-8.4629 0.31538-3.0262-1.4318-5.4799-3.5371-6.6113-0.74687-0.40137-1.4988-0.53204-2.2422-0.51172z" color="#000000"/>
</g>
<g fill-rule="evenodd">
<path d="m109.09 117.41c-10.238-0.39286-16.637 7.9205-12.325 15.273 4.3119 7.3522 22.462 7.4119 25.242 0.27114 2.7795-7.1407-6.7745-15.979-12.917-15.544z" color="#000000" fill="#fff"/>
<path d="m109.02 115.52c-5.5823-0.17302-10.297 1.9878-13.037 5.4394-2.7645 3.4823-3.379 8.3842-0.85742 12.684 2.7434 4.6777 8.9736 6.4652 14.82 6.5098 2.9233 0.0223 5.8038-0.42867 8.2695-1.4375 2.4657-1.0088 4.6118-2.6349 5.5605-5.0723 1.7528-4.5031-0.37279-9.2136-3.4844-12.59-3.0951-3.3584-7.2467-5.7895-11.271-5.5332zm0.20312 3.7852c2.0972-0.14861 5.7674 1.603 8.2734 4.3223 2.5061 2.7192 3.765 5.999 2.7383 8.6367-0.441 1.133-1.605 2.177-3.459 2.9356s-4.3001 1.1714-6.8008 1.1523c-5.0013-0.0381-10.004-1.9563-11.572-4.6309-1.7904-3.0527-1.3599-5.9842 0.55664-8.3984 1.9166-2.4142 5.4659-4.1898 10.057-4.0137l0.10351 4e-3z" color="#000000"/>
</g>
<path d="m109.34 132.5c5.7093-0.81343 4.68-4.412 2.6227-7.3068s-7.4148-1.5673-7.495 1.734c-0.0802 3.3013 0.78612 4.8976 4.8723 5.5729z" fill-rule="evenodd"/>
<g fill-rule="evenodd">
<path d="m137.34 117.3c-10.238-0.39286-16.637 7.9205-12.325 15.273 4.3119 7.3522 22.462 7.4119 25.242 0.27114 2.7795-7.1407-6.7745-15.979-12.917-15.544z" color="#000000" fill="#fff"/>
<path d="m137.27 115.41c-5.5823-0.17302-10.297 1.9878-13.037 5.4394-2.7645 3.4823-3.379 8.3842-0.85742 12.684 2.7434 4.6777 8.9736 6.4652 14.82 6.5098 2.9233 0.0223 5.8039-0.42867 8.2695-1.4375s4.6138-2.6368 5.5625-5.0742c1.7528-4.503-0.37474-9.2136-3.4863-12.59-3.0951-3.3584-7.2467-5.7876-11.271-5.5312zm0.20508 3.7832c2.0972-0.14861 5.7654 1.605 8.2715 4.3242s3.7669 5.999 2.7402 8.6367c-0.441 1.133-1.6069 2.175-3.4609 2.9336-1.854 0.75856-4.3001 1.1734-6.8008 1.1543-5.0013-0.0381-10.004-1.9563-11.572-4.6309-1.7904-3.0527-1.3599-5.9842 0.55664-8.3984 1.9166-2.4142 5.4658-4.1918 10.057-4.0156l0.10547 4e-3z" color="#000000"/>
</g>
<path d="m138.34 131.86c5.7093-0.81343 4.68-4.412 2.6227-7.3068s-7.4148-1.5673-7.495 1.734c-0.0802 3.3013 0.78612 4.8976 4.8723 5.5729z" fill-rule="evenodd"/>
<g fill-rule="evenodd">
<path d="m121.8 102.62c-10.238-0.39286-16.637 7.9205-12.325 15.273 4.3119 7.3522 22.462 7.4119 25.242 0.27114 2.7795-7.1407-6.7745-15.979-12.917-15.544z" color="#000000" fill="#fff"/>
<path d="m121.74 100.73c-5.5876-0.17661-10.307 1.9872-13.049 5.4414-2.7645 3.4823-3.379 8.3842-0.85742 12.684 2.7434 4.6777 8.9736 6.4632 14.82 6.5078 2.9234 0.0223 5.8039-0.42672 8.2695-1.4356 2.4657-1.0088 4.6138-2.6368 5.5625-5.0742 1.7528-4.5031-0.37474-9.2136-3.4863-12.59-3.0921-3.3552-7.2386-5.7841-11.26-5.5332zm0.1914 3.7852c2.0972-0.14861 5.7674 1.605 8.2734 4.3242s3.765 5.9971 2.7383 8.6348c-0.441 1.133-1.605 2.177-3.459 2.9355s-4.3001 1.1734-6.8008 1.1543c-5.0013-0.0381-10.004-1.9583-11.572-4.6328-1.7904-3.0528-1.3599-5.9842 0.55664-8.3984 1.9166-2.4142 5.4658-4.1898 10.057-4.0137l0.10547 4e-3z" color="#000000"/>
</g>
<path d="m122.8 117.19c5.7093-0.81343 4.68-4.412 2.6227-7.3068s-7.4148-1.5673-7.495 1.734c-0.0802 3.3013 0.78612 4.8976 4.8723 5.5729z" fill-rule="evenodd"/>
<g transform="matrix(1.0109 .23107 -.25068 .93188 0 0)" style="paint-order:stroke fill markers" aria-label="JS">
<path d="m336.03-30.529v21.932c0 3.1782-0.61393 5.451-1.6875 6.8711-1.0736 1.4201-2.6016 2.1172-4.8945 2.1172-2.0068 0-3.5007-0.53067-4.6445-1.5625-1.1101-1.0609-1.9484-2.7459-2.4277-5.1426l-0.19141-0.95508-6.0742 1.8945 0.15625 0.77344c0.70518 3.4931 2.1672 6.2222 4.4141 8.0488s5.2263 2.709 8.8144 2.709c3.9917 0 7.2391-1.3142 9.4883-3.9355 2.2676-2.6061 3.3789-6.0874 3.3789-10.299v-22.451zm1.752 1.7539h2.8262v20.697c0 3.908-0.99784 6.9081-2.9473 9.1484l-4e-3 0.0039c-1.9048 2.2223-4.5401 3.3301-8.1621 3.3301-3.304 0-5.8332-0.79336-7.709-2.3184-1.708-1.3886-2.8507-3.5154-3.543-6.291l2.709-0.84375c0.55609 2.1525 1.3773 3.9472 2.6504 5.1582l0.01 0.007813 8e-3 0.007813c1.4988 1.3561 3.4957 2.0195 5.8281 2.0195 2.6794 0 4.8804-0.94588 6.293-2.8145 1.4126-1.8686 2.041-4.5286 2.041-7.9277z" color="#000000"/>
<path d="m329.49 5.2805q-10.338 0-12.368-10.055l4.3902-1.369q0.7553 3.7765 2.6907 5.6175 1.9826 1.7938 5.2399 1.7938 7.4586 0 7.4586-9.8661v-21.054h4.579v21.573q0 6.0896-3.1628 9.7244-3.1156 3.6349-8.8275 3.6349z" color="#000000"/>
<path d="m359.56-31.096c-4.0134 0-7.2861 0.9916-9.6816 3.0449l-4e-3 4e-3c-2.3316 2.0275-3.5586 4.648-3.5586 7.6465 0 1.4261 0.25641 2.7247 0.79102 3.8652 0.51048 1.089 1.1389 1.993 1.9043 2.6855 0.77084 0.69742 1.7886 1.2733 3.0508 1.7715 1.221 0.48196 2.291 0.83887 3.2246 1.0723l4e-3 2e-3h4e-3c0.93658 0.22607 2.1581 0.4807 3.6777 0.76562l0.01 2e-3h8e-3c1.314 0.219 2.3288 0.40673 3.0273 0.55859l4e-3 0.00195h4e-3c0.70579 0.14704 1.5551 0.38901 2.5371 0.72656l0.0156 0.00586 0.0156 0.00391c0.97762 0.29625 1.6783 0.63461 2.082 0.94336l0.0117 0.00977 0.0137 0.00977c0.4242 0.29944 0.81929 0.72371 1.1777 1.3027 0.32063 0.51794 0.48242 1.0957 0.48242 1.8047 0 1.5025-0.52812 2.6088-1.707 3.5684-1.1546 0.93978-2.8209 1.457-5.1113 1.457-2.4373 0-4.4906-0.46451-6.2012-1.3633-1.715-0.90113-3.3177-2.342-4.7988-4.3672l-0.54882-0.75195-5.1562 4.2637 0.44922 0.66016c3.4323 5.0494 8.8418 7.6074 15.877 7.6074 4.0437 0 7.3314-0.99026 9.7285-3.0449 2.3765-2.037 3.6113-4.7774 3.6113-7.9824 0-1.4597-0.27373-2.7795-0.8457-3.9258-0.54113-1.115-1.2022-2.0311-2-2.7227-0.80013-0.72512-1.848-1.3174-3.1387-1.8145-1.2183-0.51191-2.3238-0.88712-3.3242-1.1211l-8e-3 -2e-3c-0.93933-0.22652-2.1319-0.46385-3.5859-0.7168-1.4094-0.25057-2.4562-0.45435-3.1211-0.60547-0.65751-0.14944-1.5043-0.38154-2.5215-0.68945-0.97915-0.32719-1.6632-0.65659-2.002-0.90234-0.37056-0.29966-0.72627-0.71109-1.0566-1.2617-0.29144-0.48573-0.44141-1.0373-0.44141-1.7207 0-1.3701 0.49266-2.4053 1.6172-3.3379l6e-3 -0.0039 4e-3 -0.0039c1.0816-0.92327 2.7252-1.4434 5.0488-1.4434 2.4701 0 4.4318 0.46762 5.9297 1.3438 1.5204 0.88931 2.887 2.283 4.0879 4.2344l0.50391 0.82031 5.4629-4.1133-0.49414-0.69531c-3.5736-5.0162-8.6984-7.5918-15.064-7.5918zm0 1.7539c5.595 0 9.8387 2.0826 13.068 6.2148l-2.5684 1.9316c-1.1962-1.73-2.5393-3.15-4.1094-4.0684-1.838-1.0751-4.1254-1.582-6.8164-1.582-2.5828 0-4.681 0.58083-6.1797 1.8574-1.4532 1.2071-2.25 2.8456-2.25 4.6836 0 0.95308 0.22755 1.848 0.69141 2.6211 0.42075 0.70126 0.91001 1.2893 1.4785 1.7441l0.0156 0.01172 0.0137 0.01172c0.60689 0.44505 1.4239 0.80081 2.5078 1.1621l0.0234 0.0078c1.0515 0.31863 1.9331 0.56026 2.6562 0.72461 0.71978 0.16359 1.7802 0.36813 3.2031 0.62109h2e-3l2e-3 2e-3c1.4358 0.2497 2.6004 0.48195 3.4844 0.69531l4e-3 2e-3h2e-3c0.87996 0.20532 1.9083 0.5498 3.0703 1.0391l0.0117 0.0059 0.0137 0.0059c1.1571 0.44503 2.0212 0.95305 2.6035 1.4824l8e-3 0.0078 0.01 0.0059c0.58193 0.50257 1.1146 1.2178 1.5781 2.1738l2e-3 0.00586 2e-3 0.00391c0.4333 0.8666 0.66211 1.9039 0.66211 3.1484 0 2.7744-0.96865 4.9129-2.998 6.6523-2.0088 1.7218-4.8269 2.6211-8.5879 2.6211-6.2932 0-10.794-2.1075-13.902-6.2402l2.4836-2.0568c1.4503 1.8092 3.0227 3.2665 4.7793 4.1895 2.003 1.0524 4.3566 1.5645 7.0176 1.5645 2.556 0 4.6649-0.58644 6.2168-1.8496 1.5276-1.2434 2.3535-2.9684 2.3535-4.9277 0-0.99038-0.24653-1.9227-0.74414-2.7266-0.45669-0.73773-1.0044-1.3459-1.6445-1.8008-0.66371-0.50419-1.5286-0.88793-2.6192-1.2187-1.0166-0.34846-1.9197-0.60934-2.7148-0.77539-0.74482-0.16192-1.7751-0.35034-3.0938-0.57031l-0.0176-0.0039c-1.4912-0.27985-2.6899-0.52872-3.5742-0.74219-0.82757-0.20731-1.8302-0.54096-2.998-1.002-1.1296-0.4459-1.9686-0.94099-2.5195-1.4395-0.55634-0.50335-1.0605-1.2058-1.4941-2.1309-0.40952-0.87362-0.625-1.9037-0.625-3.1211 0-2.5388 0.9442-4.572 2.9531-6.3203 2.0103-1.7224 4.8115-2.6211 8.5391-2.6211z" color="#000000"/>
<path d="m346.02-1.8948 3.8237-3.1628q2.3131 3.1628 5.0982 4.6262 2.7852 1.4634 6.6088 1.4634 3.6349 0 5.6647-1.6522t2.0299-4.2485q0-1.2746-0.61368-2.2659-0.61368-0.99133-1.4162-1.5578-0.8025-0.61368-2.3603-1.0857-1.5106-0.51927-2.6435-0.7553-1.0857-0.23603-3.0684-0.56647-2.2659-0.42485-3.6349-0.7553-1.3218-0.33044-3.1156-1.0385t-2.7852-1.605q-0.99132-0.89691-1.6994-2.4075t-0.70809-3.4932q0-4.1541 3.2572-6.9865 3.3044-2.8324 9.1108-2.8324 9.2052 0 14.351 7.2225l-4.0125 3.0212q-1.8882-3.0684-4.3902-4.5318-2.5019-1.4634-6.3728-1.4634-3.6821 0-5.6175 1.6522-1.9354 1.605-1.9354 4.0125 0 1.2274 0.56647 2.1715t1.2746 1.5106q0.70809 0.51927 2.2659 1.0385 1.5578 0.47206 2.5963 0.70809t3.1628 0.61368q2.1715 0.37765 3.5404 0.70809 1.4162 0.33044 3.21 1.0857 1.841 0.70809 2.8796 1.6522 1.0385 0.89691 1.7938 2.4547 0.7553 1.5106 0.7553 3.5405 0 4.4846-3.3044 7.3169-3.3044 2.8324-9.158 2.8324-10.244 0-15.153-7.2225z" color="#000000"/>
</g>
<path d="m103.41 179.9c0.48087 0.52969 1.0199 0.9414 1.5568 1.427 0.74681 0.66357 1.736 1.1207 2.5698 1.6692 1.142 0.68389 2.4002 1.1462 3.6526 1.5832 0.9368 0.39363 1.9266 0.6336 2.8843 0.96532 1.007 0.31116 2.045 0.51861 3.0807 0.7103 1.161 0.18877 2.3217 0.35202 3.4958 0.43228 1.2113 0.0686 2.425 0.0481 3.6373 0.0253 1.3281-0.0371 2.6576-0.0318 3.9819-0.14409 1.3843-0.12836 2.7529-0.37828 4.1152-0.65005 1.5099-0.37109 2.9631-0.94349 4.3794-1.5781 1.6122-0.80948 3.1689-1.7316 4.6348-2.7833 0.75282-0.51337 1.4238-1.135 2.0764-1.7676 2.4274-2.3863-0.9474-5.8192-3.3748-3.4328-0.46896 0.47484-0.9747 0.92221-1.5245 1.3011-1.1935 0.87534-2.4857 1.6082-3.7943 2.2959-1.082 0.49453-2.1982 0.92592-3.345 1.2453-1.1931 0.24162-2.3927 0.46029-3.6054 0.57578-1.2058 0.12365-2.4242 0.0688-3.6342 0.12489-1.0757 0.021-2.1527 0.0405-3.2277-0.0156-0.99006-0.0632-1.967-0.20903-2.9463-0.36387-0.80679-0.14626-1.6143-0.30917-2.4027-0.53411-0.95094-0.31835-1.9231-0.57354-2.8528-0.9545-0.88998-0.30668-1.7841-0.62971-2.6145-1.0762-0.63148-0.39542-1.4026-0.72572-1.9686-1.209-0.97304-0.86617-1.78-1.7151-2.7358-2.6022-4.58-3.0677-5.9028 1.3505-2.0384 4.7562z" fill-rule="evenodd" style="paint-order:stroke fill markers"/>
</g>
</svg>
