<?xml version="1.0" encoding="UTF-8"?>
<svg version="1.1" viewBox="0 0 2000 2000" xmlns="http://www.w3.org/2000/svg">
<path d="m0 0h2e3v2e3h-2e3z" fill="#fff" fill-rule="evenodd" stroke-linecap="round" stroke-opacity=".79" stroke-width="238.5"/>
<path d="m1453 1239.8s344.26 3.1202 344.26 11.441c0 8.3206-13.521 200.73-13.521 200.73l-45.763 111.29-210.09-199.69z" fill="#f7de1e" fill-rule="evenodd"/>
<path d="m354.66 567.88 5.7204-43.683 22.882 15.601 16.121 52.003 27.042-64.484 14.041 21.841 1.0401 117.53s13.001 46.803 15.081 48.883c2.0801 2.0801 46.803 4.1603 46.803 4.1603l52.003-14.041 84.246-169.53s37.962-40.563 41.603-37.962c3.6402 2.6002 65.524 15.081 65.524 15.081l96.726-28.082 41.603-37.962 40.563 43.683 79.045 35.362 85.286-8.3206 68.644 137.29 33.282 218.41v212.17l12.481 137.29 45.763 39.523 14.561 54.084-24.962 24.962-52.003-4.1603-66.564-6.2404-27.042-2.0802-10.401 345.3 6.2404 104.01 35.362 27.042-47.843 35.362-143.53-22.882-39.523-66.564-14.561-351.54-6.2404-245.46-64.484-29.122-79.045 10.401-47.843 649-35.362 33.282h-110.25l-31.202-22.882 37.442-79.045 14.561-380.66 16.641-266.26-47.843-178.89v-64.484l-58.244 22.882-56.164-14.561-37.442-91.526-56.164-16.641-22.882-31.202 12.481-56.164 45.763-29.122z" fill="#f7de1e" fill-rule="evenodd"/>
<path d="m900.7 794.61 37.442 0.52s8.3206 95.686-0.52 91.006-48.363-47.843-48.363-47.843z" fill="#fff" fill-rule="evenodd"/>
<path d="m852.33 147.12-2 0.47852v-2e-3l-2 0.47852-14 3.0547-6 2.1367-6 2.1387-8 4.7734-8 4.7715-8.1738 6.5469-8.1719 6.5469-3.1738 4.0059-20.777 30.355-5.082 5.373-4.5859 9.2832-4.5859 9.2852-7.7344 27.18-1.0918 8.5-1.0898 8.5-0.66601 9.7832-0.66797 9.7832-0.86719 0.53711-0.86523 0.53515-22.271-0.0996-22.271-0.10156-7.2344 1.5234-7.2344 1.5215-4.2266 2.1484-4.2285 2.1484-5.5606 4.3594-5.5586 4.3574-10.324 12.504-3.627 6-3.625 6-8.5664 19-3.0488 11.5-3.0469 11.5-1.6856 14-1.6836 14 0.54687 17 0.54688 17 1.4297 5.5 1.4297 5.5 3.125 6.8613 3.123 6.8613 10.484 14.277 5.3789 5.7031 5.3789 5.7051-11.531 11.795-11.531 11.797-3.3281 4.0977-3.3262 4.0976-5.2949 6.9024-5.293 6.9023-5.7754 8-5.7773 8-17.457 29-13.117 27-5.6484 12-4.9551 12-4.9531 12-2.4961 8-1.4219 2.8086-1.4219 2.8066-2.9805 9.6934-2.9785 9.6914-3.7461 3.7617-17.684 6.8398-27.617 9.8985h-23.619l-2.6543-4.0117-2.6543-4.0098-1.9258-8.2402-1.9258-8.2383-1.0957-12-1.0957-12-0.36133-60-0.36132-60-1.4883-5-1.4883-5-1.6973-4-1.6953-4-3.6621-3.8555-3.6602-3.8574-8-5.1328-10.031-0.44922-10.033-0.44727-5.2617 2.2617-5.2617 2.2637-3.3418 3.9043-3.3418 3.9062-2.3633 4.4531-2.3613 4.4531h-1.3574l-3.2793-5.7324-3.2793-5.7344-4.3477-4.3457-4.3476-4.3477-5.4434-2.4902-5.4414-2.4922-7.373-0.0781-7.373-0.0762-10.895 6.2344-1.5684 1.7812-1.5703 1.7812-3.5723 7-3.5742 7-2.9258 15-1.2207 14.965-1.2227 14.965 0.69531 14.535 0.69727 14.535 0.19726 2.873 0.19727 2.875-5.6172 2.957-5.6172 2.959-6.8828 5.2402-6.8828 5.2383-5.8496 6.9277-5.8477 6.9297-4.9844 10.305-4.9824 10.307-1.4004 9.1934-1.4004 9.1953 0.0352 27 1.3086 6 1.3086 6 10.684 18 7.1797 7 7.1777 7 7.457 4.1484 7.4551 4.1504 9.7461 3.3086 7.5566 1.4473 7.5566 1.4453h8.3691l5.1367 1.9531 2.498 5.459c2.0744 7.05 5.6821 12.109 8.4492 19.088l3.1719 8 7.2363 14 7.2383 14 14.047 19 6.9277 6.3496 6.9258 6.3496 6.5 3.7656 6.5 3.7637 6 2.0469 6 2.0488 15.645 2.1758h29.725l14.152-2.9766 4.9551-2.5117 4.957-2.5117h1.8477l0.10352 34.531 0.10156 34.533 2.4434 11.717 2.4414 11.719 4.5117 11c3.8588 12.491 7.0513 19.725 10.871 33l3.4453 7 4.125 17 4.123 17 1.4824 18 1.4805 18 1.1504 22.289 1.1504 22.289-0.53125 61.711-0.53125 61.711-1.9844 17-1.5879 15.644-1.5879 15.645-0.9707 5.1152-0.96875 5.1152-1.957 15.74-1.957 15.74-1.2344 15-3.8477 26-1.5332 16.5-1.5352 16.5-1.0098 25-1.0117 25-0.55273 20.5-0.55274 20.5-0.89062 75-0.88868 75-1.9473 38.5-1.9453 38.5-3.2168 10-3.2188 10-12.863 25.566-2.373 6.2988-2.3711 6.3008-1.2539 10.045-1.252 10.045 1.2598 7.0566 1.2617 7.0586 3.1934 4.4922 3.1953 4.4922 2.4766 1.8808 2.4766 1.8828 3.7031 2.1289 3.7051 2.1309 8.7949 3 8.7969 3 8.7031 1.6113 8.7051 1.6133 81.592-0.6816 7-2.584 7-2.5859 11.84-4.2618 8.6524-5.0703 5.3008-5.209 5.3008-5.2109 9.1641-13 3.0215-9 3.0234-9 3.1328-16 1.0781-12 2.9258-31 2.1367-47 2.0625-17 0.85742-41 0.85938-41 1.5371-23.5 1.5391-23.5 1.0078-25.303 1.0078-25.303 0.52343-0.8457 0.52344-0.8476 1.0195-24.35 1.0195-24.352 1.0156-10.5 1.0137-10.5 1.4219-20.428 1.4219-20.428 1.0664-11.072 1.0664-11.072 2.5098-26 2.5117-26 1.4336-8 1.4356-8 0.0332-4 0.0293-4 2.0156-17 2.0156-17 3.8867-26 1.2656-24 1.4023-11 1.4063-11 8e-3 -7.1797 8e-3 -7.1777 3.2773-3.2774 35.111 0.3379 35.111 0.3399 15.383 4.291 15.381 4.293 2.4199 1.5859 2.418 1.584 1.33 2.6015 1.3301 2.6016 1.1113 7 1.1133 7 1.1563 10 1.1582 10 0.7344 146.5 0.7343 146.5 1.0821 12.5 1.08 12.5 2.0196 45.5 2.0215 45.5 3.0156 31 3.0508 44 1.4629 18.5 1.4628 18.5 2.5918 17.5 2.5899 17.5 1.4551 6.9512 1.457 6.9531 4.3476 8.623 4.3497 8.6231 7.7343 10.74 7.7364 10.742 5.2949 5.7168 5.2949 5.7188 11.342 8.1308 11.342 8.1328 15.371 8.2735 13.396 4.8457 13.396 4.8476 9.4179 1.5567 9.418 1.5586 35.863 2.3671 33.137-1.1757 6.4355-1.1035 6.4336-1.1055 5.5664-1.8945 5.5645-1.8965 8.9668-4.8028 8.9648-4.8027 5.6524-5.5176 5.6504-5.5156 3.373-6.4844 3.3711-6.4824 0.012-13.154 0.01-13.154-4-5.8066-4-5.8086-11.662-9.7598-11.66-9.7598-2.0996-2.9472-2.0996-2.9473-0.9902-5.2187-0.9883-5.2168 0.033-76.613 0.035-76.613 1.75-36 1.6484-14 1.6504-14 2.3887-18 2.3886-18 3.1016-26 1.5156-13 1.5137-13 2.9922-22 0.9726-9 0.9746-9 0.018-24.316 0.018-24.314 2.0586-3.8476 2.9219-1.5117 2.9199-1.5098 2.5996 0.02 8.1934 5.8692 8.1933 5.8711 7.8067 2.8711 7.8066 2.873 12-0.035 12-0.033 5.0898-2.6523 5.0899-2.6523 3.1289-3.5645 3.1309-3.5625h6.3242l3.2949 2.0352 3.2949 2.0371 14.541 1.0195 14.539 1.0195 7.0391-0.9746 7.039-0.9765 4.7442-2.9043 4.7441-2.9063 3.5801-4.7187 3.582-4.7207 1.8574-5.7051 1.8594-5.7051 0.4023-17.5 0.4063-17.5-1.6309-6.9746-1.6308-6.9746-2.6582-5.2481-2.6563-5.248 0.7754-0.7774 0.7774-0.7773 25.668-0.6641 25.668-0.6621 14.5-1.1113 14.5-1.1094 75-3.9531h15.273l5.8438 7.25 5.8476 7.25 14.254 17 11.346 15 11.344 15 7.5449 9.8262 7.5469 9.8281 14.805 20.672 14.805 20.674 3.0761 4.5 3.0743 4.5 20.141 29 15.938 21 23.162 28.971 22 22.777 9.5 8.0683 9.5 8.0703 7 6.5977 7 6.5996 17.885 14.459 17.885 14.457 8.9043 7.5762 8.9043 7.5801 7.711 4.0683 7.7109 4.0684 5.2988 1.1015 5.2989 1.1055h11.17l4.1172-1.166 4.1152-1.166 6.6758-6.168 2.0762-4 2.0761-4 2.8164-10.779 2.8164-10.781 1.0977-2.0508 1.0976-2.0508 2.8301-11.168 2.8301-11.17 3.4648-11 3.4649-11 7.5898-25 1.2286-5.5 1.2304-5.5 2.125-8.2363 2.1231-8.2344 2.0019-9.2656 2.002-9.2637 2.8476-14 2.8496-14 0.6621-7 0.6622-7 1.3925-8 1.3926-8 1.8184-12.5 1.8183-12.5 0.012-40.5v-40.5l-2.2403-4.1894-2.2402-4.1915-3.2598-3.0644-3.2597-3.0664-8.5-2.6035-8.5-2.6055-9-1.3594-9-1.3613-25-2.2344-7-1.5078-7-1.5098-16-1.539-16-1.5391-74-0.457-74-0.459-25 1.1621-25 1.1641-56 0.9785-56 0.9824-25 1.7149-59.875 3.2968-0.5899 0.3653-0.5879 0.3633-58.008 0.5585-8.8672-7.6386-8.8691-7.6407-5.6016-3.0449-5.6015-3.0449-2.3067-1.8125-2.3066-1.8125-0.3321-72.453-0.33-72.451-1.0274-93.5-1.0254-93.5-4.1172-54-2.1015-17.5-2.0996-17.5-1.9434-12-1.9414-12-1.9414-9-1.9395-9-2.0918-10.93-2.0898-10.93-1.9141-7.0703-1.9121-7.0703-6.289-26-1.8535-7.5-1.8497-7.5-1.9531-8.5-1.9551-8.5-3.0937-11.5-3.0957-11.5-2.3848-5.5-2.3828-5.5-1.7402-5.5-1.7403-5.5-4.5273-11-4.5293-11-0.7559-1-0.7539-1-9.3242-23-5.5254-10.98-5.5234-10.98-6.0078-8.3242-6.0098-8.3223 20.791-21.393 14.203-24 4.3555-12.5 4.3535-12.5v-20l0.012-20-2.9668-7-2.9649-7-2.9433-5.5-2.9434-5.5-3.0098-4.5-3.0117-4.5-5-6.3555-4.998-6.3516-20.986-18.951-14.328-9.668-8.8476-4.0781-6.8692-2.5488-6.8691-2.5469-13.035-2.082-5.7967 0.0323-2.5724-0.54821-3.7637-1.3379-2.375-11.918-0.4941-22.324-0.4942-22.322-1.6269-5.6777-1.6289-5.6758-4.0743-8.7363-4.0742-8.7363-4.3593-6.5879-4.3594-6.5859-6.5489-8.1562-6.5488-8.1562-7.2558-6.4024-7.2539-6.4023-8-5.9922-8-5.9941-6-3.5879-6-3.5898-17-8.5078-19-6.9141-17-4.7422-14-2.1016-14-2.0996-16.5-0.38086zm16 33.939 28.662 1.957 10.668 2.5664 10.67 2.5684 11 3.6836 10 4.3555 5 2.2871 5 2.2891 11 7.334 11 7.332 10.135 10.049 10.137 10.049 5.0704 7.8105 5.0703 7.8145 2.7109 5.5391 2.7109 5.5371 1.2793 7.1504 1.2813 7.1484 0.051 11.178 0.055 11.176-1.0489 7.8242-1.0469 7.8223-1.6074 5-1.6093 5-2.8184 6.1016-2.8164 6.1035-4.3965 5.8965-4.3965 5.8984-3.3808 3.1074-3.3789 3.1094-11 7.9375-13 7.1914-12 4.3906-8 2.5449-8 2.543-62 0.02-10-1.7832-10-1.7852-9.5821-2.7559-9.584-2.7539-8.916-3.7773-8.9179-3.7754-7.8731-4.6074-7.873-4.6055-6.6914-7.1524-6.6876-7.1504-3.8125-7.5078-3.8086-7.5059-0.96094-26.684 1.0664-14 1.0684-14 8.1484-26 2.3926-3.625 2.3926-3.625 21.889-32.008 4.75-4.4394 7-5.293 7-5.291 5.4003-2.7031 5.4024-2.7051 6.0976-1.3262 6.0997-1.3262 7.5-0.0644zm-9 54.082-4 1.0156-5 1.5957-5 1.5938-5.1114 3.7715-5.1133 3.7695-3.7226 4.3203-3.7246 4.3223-2.461 4.168-2.4609 4.166-1.9043 5.4199-1.9062 5.4199-1.0547 8.4922-1.0567 8.4922 1.4883 8.5312 1.4883 8.5332 3.8496 8.3887 3.8477 8.3887 2.375 5.5 2.373 5.5 5.4219 7.6602 4.0527 3.4707 4.0527 3.4688 7.7833 3.6035 7.7832 3.6074 7 1.8262 7 1.8281 18.549 0.0352 10.5-3.6914 4.1933-2.6484 4.1954-2.6465 4.9726-7.084 4.9746-7.082 4.6172-14.068 4.6152-14.066 0.033-11.107 0.035-11.105-1.5117-4-1.5137-4-3.0683-8.1914-3.0704-8.1894-2.3535-3.4668-2.3515-3.4648-3.2071-4.0488-3.207-4.0488-6.7012-4.8691-6.7011-4.8711-10-3.5898-14.5-0.32422zm-159 98.973 39.791 0.94531 2.5117 1.2344 2.5117 1.2363 0.82812 1.5 0.83008 1.5 2.6543 6 2.6543 6 4.7617 7.0586 4.7598 7.0606 7.4863 6.9394 7.4844 6.9414 8.3867 5.2246 8.3867 5.2266 18.953 8.3008 4.5 1.8867 4.5 1.8848 15.906 3.9883 15.91 3.9883h7.5527l2.5644 0.97461 2.5665 0.9746-0.012 3.2754-0.012 3.2754-1.4883 5-1.4863 5-0.9687 2-0.9668 2-2.5332 5.8691-2.5313 5.8711-4.4121 6.1289-4.4141 6.1309-5.3379 5.1836-5.3378 5.1816-8.3575 5.5059-8.3593 5.5039-9.1407 4-9.1425 4-16 4.0859-9 1.0117-9 1.0098h-23l-9-1-9-0.99805-19-4.1992-8.1191-3.7656-8.1191-3.7676-5.9863-4.0644-5.9844-4.0645-5.5996-5.7344-5.5957-5.7324-3.2988-6.0645-3.2969-6.0664-1.1738-3.5117-1.1738-3.5137-0.0488-16-0.0508-16 0.88476-9.1309 0.88282-9.1289 1.7226-5.8711 1.7207-5.8691 1.9922-6.5 1.9941-6.5 7.7148-15 9.1289-10.434 2.9785-2.1191 2.9785-2.1211 4.7246-0.8711zm336.26 13.417 0.6523 0.0332 0.7598 0.37695 5.1182 0.81725c7.1257 0.3822 13.705 4.6961 21.07 7.1719l10.102 5.082 10.104 5.084 9.1855 8.2656 9.1856 8.2676 4.9941 6.2226 4.9961 6.2266 3.3281 5.7246 3.3281 5.7266 2.2051 5.1836 2.2071 5.1856v19.906l-2.5098 8.6582-2.5098 8.6562-3.5176 7.1191-3.5175 7.1172-5.0254 6.7812-5.0274 6.7812-6.6972 5.8867-6.6953 5.8887-6.2442 4.1992-6.2422 4.2012-4.5937 1.9688-4.5938 1.9688-7.664 2.707-7.6621 2.707-51-0.039-15-4.3066-15-4.3086-9.0723-5.3086-9.0703-5.3086-7.7481-7.2363-7.75-7.2363-11.508-14.172-8.082-12-7.5586-15-3.8262-10.711-3.8242-10.711 1.1992-0.74023 1.1992-0.74219 11.682-0.25586 11.684-0.25781 9.3359-1.543 9.3399-1.541 10-3.5879 10-3.5859 4.5-1.0586v1.1348l-3 11.52v14.369l2.0078 6.5039 2.0097 6.5039 5.0782 11.094 4.6035 5.1211 4.6035 5.1192 5.5976 3.7558 5.5997 3.7539 6 2.1582 6 2.1562 15 3.4766 23-0.0782 5.5-1.8242 5.5-1.8223 8.1132-5.5391 7.3516-8.1367 6.0898-13.43 1.1661-12.371 1.166-12.373-1.1309-7.7598-1.1308-7.7598-3.6465-7.6797-3.6446-7.6797-5.0742-5.5508-5.0722-5.5488-6.0938-4.3457-6.0937-4.3457-5.7774-2.5508-5.7793-2.5508-7.9707-1.7129-7.9726-1.7148v-1.916l3.1542-5.6211 3.1543-5.6211 1.1661-1.5 6.2919-1.4657zm-308.26 27.587-6 1.3633-6 1.3613-6 2.3047-3.8359 3.6914-3.834 3.6914-3.5859 7-1.123 5.2988-1.1211 5.2988 8e-3 7.2012 8e-3 7.2012 1.8066 7.5508 1.8086 7.5527 3.7734 5.6895 3.7773 5.6875 7.0957 6.5703 7.0976 6.5703 16.125 7.6602 7.7988 1.7207 7.8008 1.7207 10.199-0.50781 10.201-0.50586 10.426-3.3398 5.0918-4.5762 5.0918-4.5781 2.3086-4.6074 2.3067-4.6074 1.3144-5.5 1.3145-5.5-0.074-8.1367-0.07-8.1348-1.5898-5.3652-1.5899-5.3633-4.2656-5.5586-4.2636-5.5566-4.5001-4.041-4.5-4.0391-5.8516-3.7051-5.8477-3.7031-5.1523-1.918-5.1484-1.918-7-1.4277-7-1.4258-8.5-0.56055zm155.67 88.908h2.8321v2.3633l5.1757 7.5703 5.1739 7.5703 9.4218 11.756 9.4219 11.758 5.1543 4.5098 5.1524 4.5098 15 10.801 11.004 5.5488 11.002 5.5469 13.658 3.502 13.656 3.5 12.734 1.0332 12.736 1.0352 11.604-0.0234 11.606-0.0215 12.535-1.3281c8.4385 0.59757 14.885-3.0334 22.607-5.0352l6.0957-1.5801 3.0704 1.0703 3.0722 1.0703 2.8086 3.668 2.8106 3.6699 6.2461 10.328 3.2148 6.8398 3.2148 6.8418 0.8711 2 0.8731 2 15.348 35 1.8106 5.5 1.8105 5.5 2.1309 5.5 2.1308 5.5 5.6094 18 2.0606 8 2.0625 8 3.6347 15 3.6348 15 5.6094 24 1.5586 5.5 1.5605 5.5 2.0938 11.5 2.0937 11.5 3.8086 16 1.5586 11 1.5606 11 1.5722 12 1.5723 12 0.8769 9 0.877 9 1.082 20 1.0821 20 0.9394 14.5 0.9375 14.5 0.08 151.78 0.078 151.78-2.0469 2.6035-2.0468 2.6015v13.285l1.5859 2.2637 1.5859 2.2636 3.8282 2.418 3.8281 2.416 6.8359 1.5567 6.836 1.5546 3 1.1876 3 1.1835 5 3.4258 5 3.4278 2.8457 2.623 2.8457 2.625 13.492 18 8.1601 14 1.5781 5.4316 1.5782 5.4297v21.256l-1.4219 1.9414-1.4238 1.9414-8.7989-0.1797-8.8008-0.1777-12.527-6.2617-12.527-6.2618-7.1133-0.031-7.1153-0.033-3.4062 2.5976-3.4063 2.5997-2.1191 4.873-2.1172 4.875-1.0898 2.75-1.0899 2.75h-4.5136l-5.4981-2.75-5.5-2.75-11.031-11.766-11-11.359-4.2012-1.332-4.1992-1.3321-4.7852 1.3399-4.7832 1.3398-4.3379 3.9981-4.3379 3.998-5.1777 6.3067-5.1777 0.3066-3.1686-1.1726-2.2494-0.8274h-3.8672l-0.6074-1.582-0.6074-1.5821 0.016-12.668 0.014-12.668 3.9218-21 1.791-5.5 1.7891-5.5 4.4844-7.3027 4.4844-7.2989 2.9453-4.7011 2.9472-4.6973 0.4219-8 0.4238-8-2.0664-9.5-2.0683-9.5-1.6309-8.3926-1.6308-8.3925-0.9336-16.608-0.9317-16.607-1.0469-7-1.0449-7-1.9062-39-1-7-0.9981-7-1.4922-38.5-1.4921-38.5-1.8946-22-0.051-9.8926-0.051-9.8925-1.9493-18.108-1.9492-18.107-2.0508-19-1.5039-12.5-1.5019-12.5-1.4785-8.5-1.4766-8.5-2.1133-17-2.1113-17-1.8906-9-1.8907-9-3.9804-35-0.625-11.5-0.625-11.5-1.4942-6.6934-1.4941-6.6934-2.8828-3.9785-2.8809-3.9785-5.3554-0.66993-5.3575-0.66992-4.1425 1.1172-4.1446 1.1152-1.9375 2.7246-1.9375 2.7266-1.2578 4.1992-1.2558 4.2012 1.1601 16.799 1.1582 16.801 1.459 13 1.457 13 2.5821 15 2.582 15 1.9551 14.5 1.955 14.5 2.0352 16 0.5254 1.4707 0.5254 1.4727 1.9844 17.027 1.9804 17.029 1.5 15.5 1.4981 15.5 0.959 8.5 0.957 8.5 1.0019 27 1.002 27 1.5234 30.5 1.5235 30.5 1.9414 19 1.5429 23 1.545 23 2.9336 28.441v11.19l1.9218 8.6836 1.9219 8.6855 1.3555 8.5645 1.3554 8.5664-2.705 4.4336-2.7051 4.4355-3.6992 7-3.6953 7-0.6856 1-0.6816 1-2.0899 8-2.0879 8-1.7636 7.5-1.7618 7.5-0.4414 20.146-0.4394 20.146 1.6875 5.8535 1.6914 5.8535 5.043 9.3203 3.1386 3.0176 3.1407 3.0176 14 7.3594 1.4003 1.1386 1.4004 1.1387-0.6328 25.504-0.6308 25.504-1.4473 13.5-1.4492 13.5-3.1406 16-0.02 11-0.9492 6-0.9473 6-3.1328 28-1.4394 8-1.4414 8-3.1992 30-3.0352 39-1.0664 153.43 1.7051 15.182 1.707 15.184 2.9922 6.2657 2.9941 6.2675 7.6641 7.4825 7.6641 7.4843 6 4.7285 6 4.7305 1.25 1.5625 1.25 1.5606v5.3632l-4.25 3.918-4.25 3.916-4.6231 2.2383-4.6211 2.2363-7.3789 1.5547-7.3769 1.5528-60-0.9297-19-4.0742-18-7.3125-13.168-6.918-8.0625-6.4492-8.0606-6.4512-9.33-10.377-13.793-20.625-0.9883-3.7617-0.9902-3.7617-2.0235-12-2.0254-12-1.9687-17.5-1.9707-17.5-0.5606-13-0.5625-13-1.0058-6-1.0059-6-0.9902-19-0.9883-19-2.039-16-0.9356-31-0.9336-31-1.0527-9.5-1.0547-9.5-0.9824-22.5-0.9825-22.5-0.041-125-0.039-125-1.8672-29-1.0645-13.418-1.0664-13.418-1.5273-7.5821-1.5274-7.582-2.6718-7-2.67-7-5.5273-5.5019-5.5234-5.504-6.5-3.2089-6.5-3.209-13.5-3.6582-13.5-3.6621-21-3.9219-31.5-0.1231-31.5-0.121-18.621 3.4296-3.6894 1.9024-3.6895 1.9023-3.0566 3.336-3.0566 3.3398-1.6426 3.5-1.6406 3.5-1.0859 28-1.002 4-1.002 4-0.59765 12.5-0.59766 12.5-3.4707 27.5-3.4727 27.5-0.92968 9.4258-0.92774 9.4277-1.041 8.0723-1.0391 8.0742-1.4726 12-1.4727 12-1.0273 10.5-1.0274 10.5-1.4609 15-1.459 15-1.0293 18-1.0273 18-1.0762 8-1.0742 8-0.77148 18.5-0.77149 18.5-1.6211 25.5-1.6211 25.5-2.125 46-0.91796 7-0.91797 7-0.0332 18.092-0.0312 18.092-1.5156 33.408-1.5117 33.408-1.4453 25-1.4453 25-1.1191 14-1.1211 14-2.0215 16.977-2.0195 16.978-2.0391 5.5215-2.0371 5.5234-2.4082 4.166-2.4102 4.166-6.4062 4.8829-4.5 2.1796-4.5 2.1778-8 2.1582-8 2.1562-65 0.114-10.5-2.3848-10.5-2.3808-5.5-3.8711v-8.791l2.0449-5.2871 2.0449-5.2852 9.2266-19 2.3398-3 2.1719-5.8398 2.1719-5.8399 6e-3 -1.6601 6e-3 -1.6602 3.1484-6 1.8144-11 1.8145-11 0.64843-29 0.65039-29 1.1094-11.5 1.1113-11.5 0.23437-40.5 0.23438-40.5 0.9414-64.072 0.94141-64.072 0.58594-0.9492 0.58789-0.9473 1.1191-19.98 1.1191-19.978 1.8945-12.5 1.8926-12.5 1.1738-10.5 1.1758-10.5 1.3105-12.5 1.3086-12.5 1.5469-10 1.5469-10 1.5586-12.5 1.5566-12.5 0.97461-12.951 0.97266-12.951 0.54492-3.0489 0.54492-3.0488 0.25586-55 0.25781-55-0.66015-18-0.66016-18-1.1582-21.5-1.1562-21.5-1.541-10-1.541-10-2.0293-9-2.0312-9-2.0801-8c-7.9993-19.335-12.341-32.805-16.277-47.424l-1.5-5.5762-1.6191-3-1.6211-3-1.3887-8-1.3906-8-1.0703-6.4082-1.0684-6.4062 0.50585-43.094 0.50782-43.092 2.0703-19c1.921-14.74 3.962-29.362 7.1406-43.816l2.0215-9.1836 1.8945-6 1.8926-6 2.6836-10.822c2.8914-8.7132 4.798-17.098 7.6468-25.678l2.1582-6.5 2.2773-5.5 2.2774-5.5 2.498-7.5 2.5-7.5 4.3125-11 2.5938-8 1.4902-3 1.4883-3 3.0586-7 2.9902-6.5 2.9922-6.5 6.1055-12.5 6.1035-12.5 7.4961-13.141 5.1856-7.9297 5.1836-7.9297 4.8164-6.6816 4.8144-6.6816 5.7793-7.5332 5.7793-7.5352 16.363-17.285 5.8594-3.8926 5.8594-3.8906h1.2285l2.3594-2.2188 2.3613-2.2148 1.7051 1.2246 1.7051 1.2227 2 0.91797 2 0.91601 9 1.9961 9 1.9941 12.826 1.6934 12.828 1.6914 41.346-0.99609 6.5001-1.1914 6.5-1.1894 17-4.0352 3.8808-1.6562 3.8828-1.6543 8.8633-4.2148 8.8613-4.2148 5.7539-3.8613 5.7579-3.8613 9.539-6.5156 9.5039-9.332 7.8106-9.75 0.01-4e-3zm-456.92 76.918 0.89062 0.29492 0.88868 0.29688 0.31445 60.996 0.3125 60.994 1.7031 13.479 1.7051 13.479 1.5508 5.9902 1.5527 5.9902 8.7969 18.062 4.0664 4.1836 4.0684 4.1816 5.248 2.9609 5.25 2.9629 7.5254 1.2148 7.5234 1.2129 14.416-1.1875 14.418-1.1875 11.361-3.918 11.359-3.916 0.90039 0.55469 0.89844 0.55469v3.9473l-1.5547 3.7168-1.5547 3.7188-4.8906 24-1.9824 10-1.9844 10-1.0898 9.5-1.0918 9.5-0.99609 3.8672-0.9961 3.8691-4.5879 4.9043-4.5859 4.9043-7.0527 5.2266-7.0508 5.2285h-41.082l-5.5-2.6152-5.5-2.6172-5.9082-5.8828-5.9082-5.8848-4.4336-5.9844-4.4336-5.9863-8.2637-17.014-8.2617-17.016-1.5371-3.5-1.5391-3.5-5.1855-12.16-5.1836-12.16-3.4961-4.084-3.4941-4.082-10.355-2.9023-14-1.2422-15.789-2.0039-4.8359-2.332-4.834-2.334-8.3477-6.6094-4.4062-5.9883-4.4082-5.9883 0.31054-17.557 0.31055-17.557 6.7344-13.328 2.877-3.4902 2.875-3.4902 8.4453-5.5606 8.4453-5.5625 2.8106-0.63281 2.8125-0.63282 6.8379-2.125 6.8359-2.127 3.5195-3.8965 3.5195-3.8945-0.42187-6.6289-0.42188-6.6309-3.4336-5.5-3.4356-5.5-0.31445-22.5-0.31641-22.5 0.62695-4.25 0.62696-4.25h1.6797l1.9902 3.375 1.9922 3.373 1.0449 4.377 1.0469 4.375 2.6035 9.5 2.6055 9.5 1.3476 5.1641 1.3457 5.1621 4.4297 13.309 3.6445 3.7988 3.6465 3.7969 4.6953 0.68945 4.6973 0.68555 3.9609-1.0664 3.9629-1.0664 2.9629-3.375 2.9609-3.373 0.66602-5.8633 0.66601-5.8613 1.5195-10 1.5215-10 1.9434-6.5703 1.9434-6.5723v-5.3184l1.625-4.0605zm368.25 222.12-12.5 0.0234-12.5 0.0254-3.7402 1.3359-3.7422 1.334-2.5918 1.6992-2.5938 1.6992-1.8945 4.1719-1.8926 4.1719-0.0234 2.7812-0.0215 2.7833 1.5391 3.6816 1.5371 3.6816 1.7129 1.9004 1.7109 1.9024 2.5 1.0019 2.5 1.0039 44 1.6953 31.402 1.0704 31.404 1.0683 0.8457 0.5254 0.8477 0.5215 0.019 7.6914 0.02 7.6914 1.4258 10.715 1.4277 10.715 0.9336 1.7851 0.9356 1.7852 1.6367 7 1.6387 7 2.789 10 4.1856 8.5 4.1875 8.5 4.3652 6.1289 4.3633 6.1289 5.7715 3.8301 5.7715 3.832 4.916 0.6309 4.916 0.6289 7.416-0.4766 7.418-0.4746 5.4883-5.0156 5.4882-5.0176 3.002-4.3652 3.0039-4.3633 2.1406-5.7344 2.1387-5.7324-0.058-41-1.7598-12.5-1.7617-12.5-5.043-20.766-1.9199-3.2539-1.9179-3.252-3.7559-2.6015-3.7539-2.6036-4.4629-1.4785-4.4648-1.4804-13.869-1.5684-13.867-1.5703-81.264-1.8946-13-1.4961zm110.26 39.863 13.74 0.5977 1.7461 3.5684 1.746 3.5703 0.9825 8.9297 0.9824 8.9316 1.2207 16.23 1.2226 16.232-0.9746 2.7676-0.9746 2.7695h-2.9511l-2.6778-5.5-2.6777-5.5-2.1758-7-2.1777-7-1.9239-7.5-1.9238-7.5-0.9726-9.3281-0.9707-9.3301-0.6211-2.4688zm666.74 450.42 121 0.4843 31 3.1719 9 1.4199 9 1.4219 17 1.668 17 1.666 2.5 1.2109 2.5 1.209 0.6132 48.926-2.1836 33-1.871 10-1.8692 10-1.0683 9-1.0684 9-2.3008 14-1.7558 6.5-1.7579 6.5-2.2109 10.5-2.209 10.5-0.8594 3.5-0.8574 3.5-2.6289 9.5-2.6308 9.5-1.3536 4.5-1.3515 4.5-6.3438 23-1.4453 3.5215-1.4473 3.5234-3.3769 12.477-3.377 12.478-2.0703 5.8926-2.0683 5.8926-1.1035 1.33-1.1055 1.3321-2.6504-1.3985-2.6484-1.3984-8.5-7.1348-8.5-7.1367-4.5-3.7676-4.5-3.7695-8.5-6.8066-8.5-6.8047-19.5-17.215-19.5-17.217-10.145-10.4-10.142-10.398-5.1954-6-5.1972-6-11.158-14.625-11.162-14.625-6.4551-8.875-6.457-8.875-17.926-26-13.512-19-13.512-19-8.4043-11-8.4023-11-14.293-19-14.295-19-2.1211-1.9043-2.123-1.9062v-2.6895l17.75-0.1309 17.75-0.1289 26.5-0.709zm144.61 23.678-2.6132 0.18-3.0157 0.8789-3.0156 0.8769-7.9687 8.1524-0.5 11.65-0.5 11.652-9 2.1895-9 2.1894-7.5 1.711-7.5 1.7109-19.145 2.0977-3.6777-0.6895-3.6777-0.6914v-4.959l2-5.6894 2-5.6914v-6.8575l-2.709-4.2832-2.709-4.2812-4.1504-2.0742-4.1504-2.0723h-4.8574l-8.8711 4.5-4.1289 6.2188-4.1309 6.2207-1.25 7.3144-1.2519 7.3145 3.0586 16.215 1.9804 3.8848 1.9805 3.8808 4.8438 4.5215 4.8457 4.5235 4.7929 2.3124 4.793 2.3145 21.117 1.0781 20.297-2.4648 7.0644-1.916 7.0645-1.918h4.3632l6.1817-2.1387 6.1816-2.1406 1.5723 2.0313 1.5723 2.0292 1.6718 3.0508 1.67 3.0547 5.166 2.6172 5.164 2.6172 3.1641-0.6836 3.1641-0.6816 3.6445-1.8438 3.6426-1.8437 2.6074-5.2305 2.6055-5.2305v-8.4765l-1.0977-2.8164-1.0977-2.8145-2.4511-12-2.4512-12-0.6035-8.8105-0.6035-8.8086-5.5-7.5938-4.541-1.1445zm-76.014 78-7.5996 0.05-9.1016 6.6797-1.8672 6.166-1.8652 6.164 2.0215 10.219 2.0214 10.221 3.7149 7.5 3.7129 7.5 5.4863 7.2891 5.4844 7.291 8.1972 6.5332 8.1954 6.5312 5.7207 2.9278 5.7226 2.9277h11.809l5.875-2.5762 5.8731-2.5761 3.8418-3.6739 1.8437-3.6738 2.9063-4.1797 6.2148-8.7246 3.3066-3.7891 12.824 17.256 4.8242 3.2559 4.6191 0.4316 2.6192 0.4316 6.3261-3.1523 4.3282-3.1523 1.5175-3.6348 1.5196-3.6348-4.7032-14.551-6.6992-10.553-1.9472-3.8125-1.9454-3.8125-3.3476-5.1894-3.3496-5.1895-3.3496-3.1875-3.3496-3.1895-4.8321-2.0605-4.834-2.0625h-8.5898l-3.4531 1.4434-3.4551 1.4433-3.6504 4.041-3.6504 4.0391-2.8164 6.2676-2.8184 6.2656-2.9511 7.7383-2.9492 7.7363-1.8418 0.014-1.8438 0.012-2.3437-1.8438-2.3438-1.8437-4.5586-5.3418-4.5586-5.3398-2.0547-3.9414-2.0547-3.9434-0.9277-4.8926-0.9277-4.8945-1.5977-5.4902-1.5957-5.4922-2.5449-3.0254-2.5449-3.0235-2.8301-1.4629z"/>
</svg>
